<?xml version="1.0" encoding="utf-8"?>
<!-- Generator: Adobe Illustrator 17.0.0, SVG Export Plug-In . SVG Version: 6.00 Build 0)  -->
<!DOCTYPE svg PUBLIC "-//W3C//DTD SVG 1.1//EN" "http://www.w3.org/Graphics/SVG/1.1/DTD/svg11.dtd">
<svg version="1.1" xmlns="http://www.w3.org/2000/svg" xmlns:xlink="http://www.w3.org/1999/xlink" x="0px" y="0px" width="1920px"
	 height="633px" viewBox="0 0 1920 633" enable-background="new 0 0 1920 633" xml:space="preserve">
<g id="Слой_9" display="none">
	<rect x="-137" y="-134" display="inline" fill="#A14944" width="2452" height="1058"/>
</g>
<g id="Слой_10">
	<path opacity="0.5" fill="#FFFFFF" d="M-43,268c0,0,918,404,1578,158s674-148,674-148l-20,318l-378,168L0,748"/>
</g>
<g id="Слой_4" display="none">
	<path display="inline" fill="#FFFFFF" d="M2075,422c0,0-87.064-61.235-280.532-20.618S1219.474,675,646.237,316.5S-545,910,25,844
		s2002-20,2002-20L2075,422z"/>
</g>
<g id="Слой_5">
	<path fill="#FFFFFF" d="M-105,452c0,0,377.263-324.845,903.632-51.423s902.58-50.572,1177.474-9.574S2209,856,2209,856L-17,764
		L-105,452z"/>
	<g>
	</g>
	<g>
	</g>
	<g>
	</g>
	<g>
	</g>
	<g>
	</g>
	<g>
	</g>
</g>
</svg>
