<svg width="1920" height="1115" xmlns="http://www.w3.org/2000/svg"><path d="M521.69-5H0v1120h1920v-49.056c-82.16-.87-149.746 1.929-202.758 8.398-79.517 9.705-200.144 28.91-243.463 28.91-43.318 0-99.398 14.829-199.377-3-66.652-11.885-113.388-28.735-140.209-50.549-30.07-21.096-54.464-46.253-73.183-75.47-28.078-43.826-54.276-120.017-62.854-174.432-8.578-54.415-17.642-157.412-49.728-230.458-32.086-73.045-56.795-131.168-133.219-194.72-76.424-63.551-107.76-81.678-177.398-168.165-69.64-86.486-82.7-120.614-99.41-155.696C527.26 27.374 521.688 8.787 521.688-5z" fill="#FFF"/></svg>